<svg version="1" xmlns="http://www.w3.org/2000/svg" width="346.667" height="346.667" viewBox="0 0 260.000000 260.000000"><path d="M116 1.2c-12 3.3-22.8 8.3-29.5 13.7C70.3 27.9 67.8 31.3 61 49c-3.2 8.3-6.1 17.4-6.4 20.2-.4 2.7-1.1 8-1.6 11.7-1.3 8.4-1.9 12.7-2.5 17.2-.4 3 0 4 3.1 7l3.5 3.4-.6 14.5c-1.2 28.6-1.2 29.3-3.8 35.3-2.7 6-2.8 8-.7 23.2.8 5.9 2.3 9.5 9.3 22.7 4.6 8.7 9.9 17.5 11.8 19.5 3 3.4 11.3 12.8 18.9 21.6 1.4 1.6 5.7 5.6 9.7 8.9l7.2 5.9 3.7-5.6c2.7-4 4.2-5.4 5.3-4.9 8.5 3.4 15.2 3.7 22.9 1l4.2-1.5 3.5 5.5 3.5 5.4 6.5-5.1c3.6-2.8 9.1-8 12.2-11.7 3.2-3.6 6.5-7.3 7.3-8.2 12-12.8 13.9-15.6 25.7-37.9 4.8-9.1 4.8-9.3 5.8-18.6.3-3.3.8-7.8 1.1-10.1.4-3-.1-5.6-2.1-10-2.1-4.7-2.7-7.9-3-15.4-.3-5.2-.7-15.1-1-22l-.5-12.6 3.5-3.4c3.7-3.6 3.8-3.9 2-14-.2-1.4-.7-4.9-1-7.9-.4-3-.8-6.1-1-7-.1-.9-.6-4-1-7s-3.3-12-6.4-20c-6.5-17-9.4-21-23.6-32.5-7.4-6-10.8-8-18.6-10.9-5.3-2-11.6-4.1-14-4.6-5.6-1.2-23.3-1.2-27.9.1z"/></svg>